<svg xmlns="http://www.w3.org/2000/svg" width="44" height="44" viewBox="0 0 44 44"><defs>
<linearGradient id="blue" x1="0" y1="0" x2="1" y2="1"><stop stop-color="#5d8dff"/><stop offset="1" stop-color="#3260fa"/></linearGradient>
<linearGradient id="purple" x1="0" y1="0" x2="1" y2="1"><stop stop-color="#568dff"/><stop offset="1" stop-color="#9b80fa"/></linearGradient>
<linearGradient id="surface" x2=".9" y2="1"><stop stop-color="#161b28"/><stop offset="1" stop-color="#0f131c"/></linearGradient>
<linearGradient id="logo" x1="0" y1="0" x2="1" y2="1"><stop stop-color="#10d8ed"/><stop offset=".45" stop-color="#167dff"/><stop offset="1" stop-color="#7136ec"/></linearGradient>
<radialGradient id="orb" cx=".4" cy=".25" r=".85"><stop stop-color="#3984ff"/><stop offset=".48" stop-color="#3656f3"/><stop offset=".75" stop-color="#4931d8"/><stop offset="1" stop-color="#a67aff"/></radialGradient>
<linearGradient id="ring" x1=".25" y1="0" x2=".7" y2="1"><stop stop-color="#43e2ff"/><stop offset=".5" stop-color="#577aff"/><stop offset="1" stop-color="#e4a2ff"/></linearGradient>
<radialGradient id="home"><stop stop-color="#242171"/><stop offset="1" stop-color="#070b13"/></radialGradient>
<filter id="glow" x="-60%" y="-60%" width="220%" height="220%"><feGaussianBlur stdDeviation="5"/></filter>
<filter id="soft" x="-50%" y="-50%" width="200%" height="200%"><feGaussianBlur stdDeviation="11"/></filter>
</defs><rect x="0" y="0" width="44" height="44" rx="12" fill="#ffffff" stroke="#dce2ee" stroke-width="0.6"/><g transform="translate(10 10) scale(1)"><g transform="translate(0 0) scale(0.8571428571428571)"><path d="M5 5H19Q21 5 21 7V20Q21 22 19 22H5Q3 22 3 20V7Q3 5 5 5ZM7 2V7M17 2V7M3 10H21M8 14H10M14 14H16M8 18H10" fill="none" stroke="#192337" stroke-width="1.5" stroke-linecap="round" stroke-linejoin="round"/></g></g></svg>