<svg xmlns="http://www.w3.org/2000/svg" width="52" height="52" viewBox="0 0 52 52"><defs>
<linearGradient id="blue" x1="0" y1="0" x2="1" y2="1"><stop stop-color="#5d8dff"/><stop offset="1" stop-color="#3260fa"/></linearGradient>
<linearGradient id="purple" x1="0" y1="0" x2="1" y2="1"><stop stop-color="#568dff"/><stop offset="1" stop-color="#9b80fa"/></linearGradient>
<linearGradient id="surface" x2=".9" y2="1"><stop stop-color="#161b28"/><stop offset="1" stop-color="#0f131c"/></linearGradient>
<linearGradient id="logo" x1="0" y1="0" x2="1" y2="1"><stop stop-color="#10d8ed"/><stop offset=".45" stop-color="#167dff"/><stop offset="1" stop-color="#7136ec"/></linearGradient>
<radialGradient id="orb" cx=".4" cy=".25" r=".85"><stop stop-color="#3984ff"/><stop offset=".48" stop-color="#3656f3"/><stop offset=".75" stop-color="#4931d8"/><stop offset="1" stop-color="#a67aff"/></radialGradient>
<linearGradient id="ring" x1=".25" y1="0" x2=".7" y2="1"><stop stop-color="#43e2ff"/><stop offset=".5" stop-color="#577aff"/><stop offset="1" stop-color="#e4a2ff"/></linearGradient>
<radialGradient id="home"><stop stop-color="#242171"/><stop offset="1" stop-color="#070b13"/></radialGradient>
<filter id="glow" x="-60%" y="-60%" width="220%" height="220%"><feGaussianBlur stdDeviation="5"/></filter>
<filter id="soft" x="-50%" y="-50%" width="200%" height="200%"><feGaussianBlur stdDeviation="11"/></filter>
</defs><g transform="translate(16 9) scale(1)"><g transform="translate(0 0) scale(0.75)"><path d="M12 3A4 4 0 1 0 12 11A4 4 0 1 0 12 3M3 22V19C3 12 21 12 21 19V22" fill="none" stroke="#adb6ca" stroke-width="1.5" stroke-linecap="round" stroke-linejoin="round"/></g></g><g fill="#adb6ca" aria-label="Profilo"><path d="M184 309H413C470 309 515 326 554 361C598 401 617 448 617 515C617 652 536 729 392 729H91V0H184ZM184 391V647H378C467 647 520 599 520 519C520 439 467 391 378 391Z" transform="translate(14.664 43) scale(0.00800 -0.00800)"/><path d="M69 524V0H153V272C154 398 206 454 321 451V536C307 538 299 539 289 539C235 539 194 507 146 429V524Z" transform="translate(20.000 43) scale(0.00800 -0.00800)"/><path d="M272 539C124 539 36 434 36 258C36 81 124 -23 273 -23C421 -23 510 82 510 254C510 436 424 539 272 539ZM273 462C367 462 423 385 423 255C423 131 365 54 273 54C180 54 123 131 123 258C123 385 180 462 273 462Z" transform="translate(22.664 43) scale(0.00800 -0.00800)"/><path d="M258 524H171V606C171 641 190 659 229 659C236 659 239 659 258 658V727C239 731 228 732 211 732C134 732 88 688 88 613V524H18V456H88V0H171V456H258Z" transform="translate(27.112 43) scale(0.00800 -0.00800)"/><path d="M150 524H67V0H150ZM150 729H66V624H150Z" transform="translate(29.336 43) scale(0.00800 -0.00800)"/><path d="M152 729H68V0H152Z" transform="translate(31.112 43) scale(0.00800 -0.00800)"/><path d="M272 539C124 539 36 434 36 258C36 81 124 -23 273 -23C421 -23 510 82 510 254C510 436 424 539 272 539ZM273 462C367 462 423 385 423 255C423 131 365 54 273 54C180 54 123 131 123 258C123 385 180 462 273 462Z" transform="translate(32.888 43) scale(0.00800 -0.00800)"/></g></svg>