<svg xmlns="http://www.w3.org/2000/svg" width="54" height="33" viewBox="0 0 54 33"><defs>
<linearGradient id="blue" x1="0" y1="0" x2="1" y2="1"><stop stop-color="#5d8dff"/><stop offset="1" stop-color="#3260fa"/></linearGradient>
<linearGradient id="purple" x1="0" y1="0" x2="1" y2="1"><stop stop-color="#568dff"/><stop offset="1" stop-color="#9b80fa"/></linearGradient>
<linearGradient id="surface" x2=".9" y2="1"><stop stop-color="#161b28"/><stop offset="1" stop-color="#0f131c"/></linearGradient>
<linearGradient id="logo" x1="0" y1="0" x2="1" y2="1"><stop stop-color="#10d8ed"/><stop offset=".45" stop-color="#167dff"/><stop offset="1" stop-color="#7136ec"/></linearGradient>
<radialGradient id="orb" cx=".4" cy=".25" r=".85"><stop stop-color="#3984ff"/><stop offset=".48" stop-color="#3656f3"/><stop offset=".75" stop-color="#4931d8"/><stop offset="1" stop-color="#a67aff"/></radialGradient>
<linearGradient id="ring" x1=".25" y1="0" x2=".7" y2="1"><stop stop-color="#43e2ff"/><stop offset=".5" stop-color="#577aff"/><stop offset="1" stop-color="#e4a2ff"/></linearGradient>
<radialGradient id="home"><stop stop-color="#242171"/><stop offset="1" stop-color="#070b13"/></radialGradient>
<filter id="glow" x="-60%" y="-60%" width="220%" height="220%"><feGaussianBlur stdDeviation="5"/></filter>
<filter id="soft" x="-50%" y="-50%" width="200%" height="200%"><feGaussianBlur stdDeviation="11"/></filter>
</defs><rect x="0" y="0" width="54" height="33" rx="17" fill="#0c1119" stroke="#252c3b" stroke-width="1"/><g fill="#fafaff" aria-label="Tutti"><path d="M354 647H593V729H21V647H261V0H354Z" transform="translate(16.303 21) scale(0.01100 -0.01100)"/><path d="M482 0V524H399V227C399 120 343 50 256 50C190 50 148 90 148 153V524H65V120C65 33 130 -23 232 -23C309 -23 358 4 407 73V0Z" transform="translate(23.024 21) scale(0.01100 -0.01100)"/><path d="M254 524H168V668H85V524H14V456H85V60C85 6 121 -23 186 -23C208 -23 226 -21 254 -16V54C242 51 231 50 214 50C178 50 168 60 168 97V456H254Z" transform="translate(29.140 21) scale(0.01100 -0.01100)"/><path d="M254 524H168V668H85V524H14V456H85V60C85 6 121 -23 186 -23C208 -23 226 -21 254 -16V54C242 51 231 50 214 50C178 50 168 60 168 97V456H254Z" transform="translate(32.198 21) scale(0.01100 -0.01100)"/><path d="M150 524H67V0H150ZM150 729H66V624H150Z" transform="translate(35.256 21) scale(0.01100 -0.01100)"/></g></svg>