<svg xmlns="http://www.w3.org/2000/svg" width="46" height="49" viewBox="0 0 46 49"><defs>
<linearGradient id="blue" x1="0" y1="0" x2="1" y2="1"><stop stop-color="#5d8dff"/><stop offset="1" stop-color="#3260fa"/></linearGradient>
<linearGradient id="purple" x1="0" y1="0" x2="1" y2="1"><stop stop-color="#568dff"/><stop offset="1" stop-color="#9b80fa"/></linearGradient>
<linearGradient id="surface" x2=".9" y2="1"><stop stop-color="#161b28"/><stop offset="1" stop-color="#0f131c"/></linearGradient>
<linearGradient id="logo" x1="0" y1="0" x2="1" y2="1"><stop stop-color="#10d8ed"/><stop offset=".45" stop-color="#167dff"/><stop offset="1" stop-color="#7136ec"/></linearGradient>
<radialGradient id="orb" cx=".4" cy=".25" r=".85"><stop stop-color="#3984ff"/><stop offset=".48" stop-color="#3656f3"/><stop offset=".75" stop-color="#4931d8"/><stop offset="1" stop-color="#a67aff"/></radialGradient>
<linearGradient id="ring" x1=".25" y1="0" x2=".7" y2="1"><stop stop-color="#43e2ff"/><stop offset=".5" stop-color="#577aff"/><stop offset="1" stop-color="#e4a2ff"/></linearGradient>
<radialGradient id="home"><stop stop-color="#242171"/><stop offset="1" stop-color="#070b13"/></radialGradient>
<filter id="glow" x="-60%" y="-60%" width="220%" height="220%"><feGaussianBlur stdDeviation="5"/></filter>
<filter id="soft" x="-50%" y="-50%" width="200%" height="200%"><feGaussianBlur stdDeviation="11"/></filter>
</defs><rect x="0" y="0" width="46" height="49" rx="13" fill="url(#purple)" stroke="none" stroke-width="1"/><g fill="#fff" aria-label="Mer"><path d="M468 0 673 611V0H761V729H632L420 94L204 729H75V0H163V611L370 0Z" transform="translate(14.390 18) scale(0.01000 -0.01000)"/><path d="M513 234C513 314 507 362 492 401C458 487 378 539 280 539C134 539 40 428 40 255C40 82 130 -23 278 -23C398 -23 481 45 502 159H418C395 90 348 54 281 54C228 54 183 78 155 122C135 152 128 182 127 234ZM129 302C136 399 195 462 279 462C364 462 423 396 423 302Z" transform="translate(22.720 18) scale(0.01000 -0.01000)"/><path d="M69 524V0H153V272C154 398 206 454 321 451V536C307 538 299 539 289 539C235 539 194 507 146 429V524Z" transform="translate(28.280 18) scale(0.01000 -0.01000)"/></g><g fill="#fff" aria-label="1"><path d="M259 515V0H347V723H289C258 612 238 597 102 579V515Z" transform="translate(19.108 36) scale(0.01400 -0.01400)"/></g></svg>