<svg xmlns="http://www.w3.org/2000/svg" width="206" height="50" viewBox="0 0 206 50"><defs>
<linearGradient id="blue" x1="0" y1="0" x2="1" y2="1"><stop stop-color="#5d8dff"/><stop offset="1" stop-color="#3260fa"/></linearGradient>
<linearGradient id="purple" x1="0" y1="0" x2="1" y2="1"><stop stop-color="#568dff"/><stop offset="1" stop-color="#9b80fa"/></linearGradient>
<linearGradient id="surface" x2=".9" y2="1"><stop stop-color="#161b28"/><stop offset="1" stop-color="#0f131c"/></linearGradient>
<linearGradient id="logo" x1="0" y1="0" x2="1" y2="1"><stop stop-color="#10d8ed"/><stop offset=".45" stop-color="#167dff"/><stop offset="1" stop-color="#7136ec"/></linearGradient>
<radialGradient id="orb" cx=".4" cy=".25" r=".85"><stop stop-color="#3984ff"/><stop offset=".48" stop-color="#3656f3"/><stop offset=".75" stop-color="#4931d8"/><stop offset="1" stop-color="#a67aff"/></radialGradient>
<linearGradient id="ring" x1=".25" y1="0" x2=".7" y2="1"><stop stop-color="#43e2ff"/><stop offset=".5" stop-color="#577aff"/><stop offset="1" stop-color="#e4a2ff"/></linearGradient>
<radialGradient id="home"><stop stop-color="#242171"/><stop offset="1" stop-color="#070b13"/></radialGradient>
<filter id="glow" x="-60%" y="-60%" width="220%" height="220%"><feGaussianBlur stdDeviation="5"/></filter>
<filter id="soft" x="-50%" y="-50%" width="200%" height="200%"><feGaussianBlur stdDeviation="11"/></filter>
</defs><rect x="0" y="0" width="206" height="50" rx="14" fill="url(#surface)" stroke="none" stroke-width="1"/><g transform="translate(12 12) scale(1)"><rect x="0" y="0" width="26" height="26" rx="8" fill="#763ae7" stroke="none" stroke-width="1"/><g transform="translate(4.16 3.12) scale(1)"><g transform="translate(0 0) scale(0.6314285714285715)"><path d="M4 7V21M8 5V23M20 7V21M16 5V23M8 14H16M1 10V18M23 10V18" fill="none" stroke="#fff" stroke-width="1.5" stroke-linecap="round" stroke-linejoin="round"/></g></g></g><g fill="#fafaff" aria-label="Palestra"><path d="M226 260H413C547 260 633 355 633 503C633 649 550 729 398 729H76V0H226ZM226 385V604H366C446 604 483 569 483 495C483 420 446 385 366 385Z" transform="translate(48.000 23) scale(0.01200 -0.01200)"/><path d="M524 17C500 40 492 56 492 83V383C492 493 417 549 271 549C125 549 49 487 40 362H175C182 418 205 436 274 436C328 436 355 418 355 382C355 364 346 349 331 340C312 330 312 330 243 319L187 309C80 291 28 236 28 139C28 42 93 -23 192 -23C252 -23 306 2 356 54C356 26 359 16 372 0H524ZM355 217C355 136 315 90 244 90C197 90 168 115 168 155C168 197 190 217 248 229L296 238C333 245 339 247 355 255Z" transform="translate(56.004 23) scale(0.01200 -0.01200)"/><path d="M207 729H67V0H207Z" transform="translate(62.676 23) scale(0.01200 -0.01200)"/><path d="M524 226C525 238 525 243 525 250C525 304 517 354 504 392C468 490 381 549 272 549C117 549 22 437 22 256C22 83 116 -23 269 -23C390 -23 488 45 519 152H381C364 109 325 84 274 84C234 84 202 101 182 131C169 151 164 175 162 226ZM164 319C173 402 208 442 270 442C334 442 372 399 379 319Z" transform="translate(66.012 23) scale(0.01200 -0.01200)"/><path d="M505 366C503 480 415 549 270 549C133 549 48 480 48 369C48 333 59 302 78 281C97 262 114 253 166 236L333 184C368 173 380 162 380 140C380 107 341 87 276 87C239 87 211 93 193 106C178 117 172 128 166 157H29C33 38 120 -23 284 -23C359 -23 416 -7 456 25C496 57 520 107 520 160C520 230 485 275 414 296L237 347C198 359 188 367 188 389C188 419 220 439 269 439C336 439 369 415 370 366Z" transform="translate(72.684 23) scale(0.01200 -0.01200)"/><path d="M301 529H223V674H83V529H14V436H83V104C83 19 128 -23 220 -23C252 -23 275 -20 301 -12V86C287 84 280 83 269 83C232 83 223 94 223 142V436H301Z" transform="translate(79.356 23) scale(0.01200 -0.01200)"/><path d="M63 540V0H203V287C203 369 244 410 326 410C341 410 351 409 370 406V548C362 549 359 549 353 549C289 549 234 507 203 434V540Z" transform="translate(83.352 23) scale(0.01200 -0.01200)"/><path d="M524 17C500 40 492 56 492 83V383C492 493 417 549 271 549C125 549 49 487 40 362H175C182 418 205 436 274 436C328 436 355 418 355 382C355 364 346 349 331 340C312 330 312 330 243 319L187 309C80 291 28 236 28 139C28 42 93 -23 192 -23C252 -23 306 2 356 54C356 26 359 16 372 0H524ZM355 217C355 136 315 90 244 90C197 90 168 115 168 155C168 197 190 217 248 229L296 238C333 245 339 247 355 255Z" transform="translate(88.020 23) scale(0.01200 -0.01200)"/></g><g fill="#adb6ca" aria-label="1 ora"><path d="M259 515V0H347V723H289C258 612 238 597 102 579V515Z" transform="translate(48.000 39) scale(0.01000 -0.01000)"/><path d="M272 539C124 539 36 434 36 258C36 81 124 -23 273 -23C421 -23 510 82 510 254C510 436 424 539 272 539ZM273 462C367 462 423 385 423 255C423 131 365 54 273 54C180 54 123 131 123 258C123 385 180 462 273 462Z" transform="translate(56.340 39) scale(0.01000 -0.01000)"/><path d="M69 524V0H153V272C154 398 206 454 321 451V536C307 538 299 539 289 539C235 539 194 507 146 429V524Z" transform="translate(61.900 39) scale(0.01000 -0.01000)"/><path d="M535 49C526 47 522 47 517 47C488 47 472 62 472 88V396C472 489 404 539 275 539C198 539 137 517 101 478C77 451 67 421 65 369H149C156 433 194 462 272 462C348 462 389 434 389 384V362C388 326 370 313 302 304C184 289 166 285 134 272C73 246 42 200 42 132C42 37 108 -23 214 -23C280 -23 333 0 392 54C398 0 424 -23 478 -23C496 -23 507 -21 535 -14ZM389 165C389 137 381 120 356 97C322 66 281 50 232 50C167 50 129 81 129 134C129 189 165 217 255 230C344 242 361 246 389 259Z" transform="translate(65.230 39) scale(0.01000 -0.01000)"/></g></svg>